<?xml version="1.0"?>
<svg xmlns="http://www.w3.org/2000/svg" xmlns:xlink="http://www.w3.org/1999/xlink" xmlns:svgjs="http://svgjs.com/svgjs" version="1.1" width="512" height="512" x="0" y="0" viewBox="0 0 512.002 512.002" style="enable-background:new 0 0 512 512" xml:space="preserve" class=""><g><g xmlns="http://www.w3.org/2000/svg"><circle cx="224" cy="448.001" fill="#d25c5c" r="32" data-original="#595965" style="" class=""/><path d="m216 417.009c13.802 3.553 24 16.081 24 30.992s-10.198 27.439-24 30.992c20.251 5.213 40-10.089 40-30.992 0-20.91-19.757-36.203-40-30.992z" fill="#d25c5c" data-original="#44454e" style="" class=""/><circle cx="408" cy="448.001" fill="#d25c5c" r="32" data-original="#595965" style="" class=""/><path d="m400 417.009c13.802 3.553 24 16.081 24 30.992s-10.198 27.439-24 30.992c20.251 5.213 40-10.089 40-30.992 0-20.91-19.757-36.203-40-30.992z" fill="#d25c5c" data-original="#44454e" style="" class=""/><path d="m504 104.001-40.43 224h-288.78l-43.83-224z" fill="#d25c5c" data-original="#edebfd" style="" class=""/><path d="m464 104.001-40.43 224h40l40.43-224z" fill="#d25c5c" data-original="#d2d2fc" style="" class=""/><path d="m24 64.001h64v-32h-64c-8.837 0-16 7.163-16 16 0 8.809 7.136 16 16 16z" fill="#d25c5c" data-original="#e48c9b" style="" class=""/><path d="m64 32.001h24v32h-24z" fill="#d25c5c" data-original="#cc5b6f" style="" class=""/><path d="m464 400.001c0 8.854-7.16 16-16 16h-260c-20.136 0-37.118-13.532-42.34-32h302.34c8.84 0 16 7.16 16 16z" fill="#d25c5c" data-original="#e48c9b" style="" class=""/><path d="m448 384.001h-40c8.84 0 16 7.16 16 16 0 8.854-7.16 16-16 16h40c4.42 0 8.42-1.79 11.32-4.68 9.977-10.013 2.978-27.32-11.32-27.32z" fill="#d25c5c" data-original="#cc5b6f" style="" class=""/><circle cx="224" cy="448.001" r="8" fill="#c95858" data-original="#000000" style="" class=""/><circle cx="408" cy="448.001" r="8" fill="#c95858" data-original="#000000" style="" class=""/><path d="m188 336.001h275.57c3.87 0 7.186-2.771 7.873-6.579l40.43-224c.884-4.902-2.884-9.421-7.873-9.421h-366.456l-7.163-36.607c-2.2-11.237-12.104-19.393-23.551-19.393h-10.83v-8c0-4.418-3.582-8-8-8h-64c-13.233 0-24 10.767-24 24s10.767 24 24 24h64c4.418 0 8-3.582 8-8v-8h10.83c3.814 0 7.115 2.72 7.849 6.466 15.379 78.6 36.723 187.683 51.346 262.421-17.717 8.298-30.025 26.291-30.025 47.113 0 28.443 23.138 52 52 52h4c.44 0-8 8.593-8 24 0 22.056 17.944 40 40 40 33.068 0 51.603-37.915 31.978-64h120.044c-19.649 26.116-1.059 64 31.978 64 33.068 0 51.603-37.915 31.978-64h8.022c6.402 0 12.428-2.49 16.987-7.033 15.06-15.116 4.237-40.967-16.987-40.967h-295.772c-2.381-21.431 14.444-40 35.772-40zm-108-280h-56c-4.411 0-8-3.589-8-8s3.589-8 8-8h56zm288 128v64h-96v-64zm-96-16v-56h96v56zm197.88 80h-85.88v-64h97.431zm-101.88 16v56h-96v-56zm-112-16h-88.715l-12.523-64h101.238zm-74.627 72-10.957-56h85.584v56c-10.032 0-63.065 0-74.627 0zm275.512 0h-72.885v-56h82.992zm27.434-152h-100.319v-56h110.427zm-228.319-56v56h-104.368l-10.958-56zm-8 336c0 13.233-10.767 24-24 24s-24-10.767-24-24 10.767-24 24-24 24 10.767 24 24zm184 0c0 13.233-10.767 24-24 24s-24-10.767-24-24 10.767-24 24-24 24 10.767 24 24zm16-56c7.147 0 10.64 8.668 5.674 13.653-1.519 1.513-3.534 2.347-5.674 2.347-15.281 0-244.846 0-260 0-12.455 0-23.451-6.359-29.917-16z" fill="#c95858" data-original="#000000" style="" class=""/></g></g></svg>
