<?xml version="1.0"?>
<svg xmlns="http://www.w3.org/2000/svg" xmlns:xlink="http://www.w3.org/1999/xlink" xmlns:svgjs="http://svgjs.com/svgjs" version="1.1" width="512" height="512" x="0" y="0" viewBox="0 0 512 512" style="enable-background:new 0 0 512 512" xml:space="preserve" class=""><g><g xmlns="http://www.w3.org/2000/svg"><path d="m152 408h-16c-17.673 0-32-14.327-32-32v-80c0-17.673 14.327-32 32-32h16c8.837 0 16 7.163 16 16v112c0 8.837-7.163 16-16 16z" fill="#d25c5c" data-original="#595965" style="" class=""/><path d="m152 264c-16.407 0-19.48-.42-25.44 1.417 5.562 2.506 9.44 8.086 9.44 14.583v112c0 6.497-3.878 12.077-9.44 14.583 6.047 1.864 9.418 1.417 25.44 1.417 8.836 0 16-7.164 16-16v-112c0-8.836-7.164-16-16-16z" fill="#d25c5c" data-original="#44454e" style="" class=""/><path d="m72 376h32v-80h-32c-8.837 0-16 7.163-16 16v48c0 8.837 7.163 16 16 16z" fill="#d25c5c" data-original="#7acef9" style="" class=""/><path d="m456 208v8c0 8.837-7.163 16-16 16h-16c-8.837 0-16-7.163-16-16v-8c0-83.947-68.053-152-152-152-83.714 0-152 67.821-152 152v8c0 8.837-7.163 16-16 16h-16c-8.837 0-16-7.163-16-16v-8c0-110.457 89.543-200 200-200 110.149 0 200 89.239 200 200z" fill="#d25c5c" data-original="#7acef9" style="" class=""/><path d="m244 8.369c104.868 6.207 188 93.204 188 199.631v8c0 7.453-5.103 13.697-12 15.476 2.714.699 2.578.524 20 .524 8.836 0 16-7.164 16-16v-8c0-114.414-96.163-206.496-212-199.631z" fill="#d25c5c" data-original="#6cb9e7" style="" class=""/><path d="m80 208v8c0 7.453-5.103 13.697-12 15.476 2.714.699 2.578.524 20 .524 8.836 0 16-7.164 16-16v-8c0-79.908 61.663-145.411 140-151.53-88.846-6.935-164 63.212-164 151.53z" fill="#d25c5c" data-original="#6cb9e7" style="" class=""/><path d="m360 408h16c17.673 0 32-14.327 32-32v-80c0-17.673-14.327-32-32-32h-16c-8.837 0-16 7.163-16 16v112c0 8.837 7.163 16 16 16z" fill="#d25c5c" data-original="#595965" style="" class=""/><path d="m376 264c-16.474 0-18.382-.465-22.56 1.417 13.065 4.028 22.56 16.196 22.56 30.583v80c0 14.387-9.495 26.555-22.56 30.583 4.222 1.902 6.122 1.417 22.56 1.417 17.673 0 32-14.327 32-32v-80c0-17.673-14.327-32-32-32z" fill="#d25c5c" data-original="#44454e" style="" class=""/><path d="m456 312v48c0 8.84-7.16 16-16 16h-32v-80h32c8.84 0 16 7.16 16 16z" fill="#d25c5c" data-original="#7acef9" style="" class=""/><path d="m408 296h24v80h-24z" fill="#d25c5c" data-original="#6cb9e7" style="" class=""/><circle cx="320" cy="480" fill="#d25c5c" r="24" data-original="#595965" style="" class=""/><path d="m312 457.371c21.257 7.516 21.308 37.724 0 45.258 15.551 5.497 32-6.023 32-22.629 0-16.626-16.466-28.12-32-22.629z" fill="#d25c5c" data-original="#44454e" style="" class=""/><path d="m464 216v-8c0-114.691-93.309-208-208-208s-208 93.309-208 208v8c0 10.429 6.689 19.321 16 22.624v50.752c-9.311 3.303-16 12.195-16 22.624v48c0 13.233 10.767 24 24 24h24.805c3.717 18.235 19.878 32 39.195 32h16c13.233 0 24-10.767 24-24v-112c0-13.233-10.767-24-24-24h-16c-19.317 0-35.479 13.765-39.195 32h-16.805v-48h8c13.233 0 24-10.767 24-24v-8c0-79.402 64.598-144 144-144s144 64.598 144 144v8c0 13.233 10.767 24 24 24h8v48h-16.805c-3.717-18.235-19.878-32-39.195-32h-16c-13.233 0-24 10.767-24 24v112c0 13.233 10.767 24 24 24h16c19.317 0 35.479-13.765 39.195-32h16.805v36c0 28.673-23.327 52-52 52h-29.013c-3.562-13.786-16.104-24-30.987-24-17.645 0-32 14.355-32 32s14.355 32 32 32c14.883 0 27.426-10.214 30.987-24h29.013c37.495 0 68-30.505 68-68v-37.376c9.311-3.303 16-12.195 16-22.624v-48c0-10.429-6.689-19.321-16-22.624v-50.752c9.311-3.303 16-12.195 16-22.624zm-144 280c-8.822 0-16-7.178-16-16s7.178-16 16-16 16 7.178 16 16-7.178 16-16 16zm-184-224h16c4.411 0 8 3.589 8 8v112c0 4.411-3.589 8-8 8h-16c-13.233 0-24-10.767-24-24v-80c0-13.233 10.767-24 24-24zm-40 96h-24c-4.411 0-8-3.589-8-8v-48c0-4.411 3.589-8 8-8h24zm320-152v-8c0-88.225-71.775-160-160-160s-160 71.775-160 160v8c0 4.411-3.589 8-8 8h-16c-4.411 0-8-3.589-8-8v-8c0-105.869 86.131-192 192-192s192 86.131 192 192v8c0 4.411-3.589 8-8 8h-16c-4.411 0-8-3.589-8-8zm-40 184h-16c-4.411 0-8-3.589-8-8v-112c0-4.411 3.589-8 8-8h16c13.233 0 24 10.767 24 24v80c0 13.233-10.767 24-24 24zm72-40c0 4.411-3.589 8-8 8h-24v-64h24c4.411 0 8 3.589 8 8z" fill="#cd5252" data-original="#000000" style="" class=""/></g></g></svg>
