<?xml version="1.0"?>
<svg xmlns="http://www.w3.org/2000/svg" xmlns:xlink="http://www.w3.org/1999/xlink" xmlns:svgjs="http://svgjs.com/svgjs" version="1.1" width="512" height="512" x="0" y="0" viewBox="0 0 512 512" style="enable-background:new 0 0 512 512" xml:space="preserve" class=""><g><g xmlns="http://www.w3.org/2000/svg"><path d="m160 184h-104c-26.51 0-48-21.49-48-48 0-26.436 21.417-48 48-48h104z" fill="#d25c5c" data-original="#aa7569" style="" class=""/><path d="m128 88h32v96h-32z" fill="#d25c5c" data-original="#9a6758" style="" class=""/><path d="m488 200v288c0 8.84-7.16 16-16 16h-416c-26.51 0-48-21.49-48-48v-320c0 26.506 21.479 48 48 48h416c8.84 0 16 7.16 16 16z" fill="#d25c5c" data-original="#d9b3af" style="" class=""/><path d="m488 200v288c0 8.84-7.16 16-16 16h-48c8.84 0 16-7.16 16-16v-288c0-8.84-7.16-16-16-16h48c8.84 0 16 7.16 16 16z" fill="#d25c5c" data-original="#c4928a" style="" class=""/><path d="m448 184h-240v-160c0-8.837 7.163-16 16-16h208c8.837 0 16 7.163 16 16z" fill="#e98686" data-original="#79cb9c" style="" class=""/><path d="m448 24v160h-48v-160c0-8.84-7.16-16-16-16h48c8.84 0 16 7.16 16 16z" fill="#e98686" data-original="#63ac7d" style="" class=""/><path d="m208 184h-48v-128c0-8.837 7.163-16 16-16h32z" fill="#e98686" data-original="#63ac7d" style="" class=""/><path d="m490 400h-98c-30.928 0-56-25.072-56-56 0-30.842 24.987-56 56-56h98c7.732 0 14 6.268 14 14v84c0 7.732-6.268 14-14 14z" fill="#d25c5c" data-original="#aa7569" style="" class=""/><path d="m504 302v84c0 7.73-6.27 14-14 14h-48c7.73 0 14-6.27 14-14v-84c0-7.73-6.27-14-14-14h48c7.73 0 14 6.27 14 14z" fill="#d25c5c" data-original="#9a6758" style="" class=""/><circle cx="392" cy="344" fill="#d25c5c" r="16" data-original="#d9b3af" style="" class=""/><path d="m496 280.838v-80.838c0-13.234-10.767-24-24-24h-16v-152c0-13.234-10.767-24-24-24h-208c-13.233 0-24 10.766-24 24v8h-24c-13.233 0-24 10.766-24 24v24h-96c-30.879 0-56 25.122-56 56v320c0 30.878 25.121 56 56 56h416c13.233 0 24-10.766 24-24v-80.838c9.223-2.619 16-11.111 16-21.162v-84c0-10.051-6.777-18.542-16-21.162zm-280-256.838c0-4.411 3.589-8 8-8h208c4.411 0 8 3.589 8 8v152h-32.401c-4.027-40.37-38.187-72-79.599-72s-75.572 31.63-79.599 72h-32.401c0-20.76 0-139.928 0-152zm175.482 152h-126.964c3.951-31.525 30.903-56 63.482-56s59.531 24.475 63.482 56zm-223.482-120c0-4.411 3.589-8 8-8h24v128h-32c0-12.067 0-103.253 0-120zm-112 40h96v80c-102.543 0-96.516.025-98.04-.052-20.101-.999-36.718-17.116-37.889-37.646-1.338-22.931 16.988-42.302 39.929-42.302zm416 400h-416c-22.056 0-40-17.944-40-40 0-302.424-.197-281.005.399-280.406 9.208 9.218 21.071 14.824 33.873 16.115 3.653.368-23.031.291 421.728.291 4.411 0 8 3.589 8 8v80h-88c-35.29 0-64 28.71-64 64s28.71 64 64 64h88v80c0 4.411-3.589 8-8 8zm24-110c0 3.309-2.691 6-6 6h-98c-26.468 0-48-21.533-48-48s21.532-48 48-48h98c3.309 0 6 2.691 6 6z" fill="#a74747" data-original="#000000" style="" class=""/><path d="m392 320c-13.233 0-24 10.766-24 24s10.767 24 24 24 24-10.766 24-24-10.767-24-24-24zm0 32c-4.411 0-8-3.589-8-8s3.589-8 8-8 8 3.589 8 8-3.589 8-8 8z" fill="#a74747" data-original="#000000" style="" class=""/><path d="m240 120c4.418 0 8-3.582 8-8v-41.012c11.229-2.901 20.087-11.759 22.987-22.988h17.013c4.418 0 8-3.582 8-8s-3.582-8-8-8h-24c-4.418 0-8 3.582-8 8 0 8.822-7.178 16-16 16-4.418 0-8 3.582-8 8v48c0 4.418 3.582 8 8 8z" fill="#a74747" data-original="#000000" style="" class=""/><path d="m368 48h17.013c2.9 11.229 11.759 20.087 22.987 22.988v41.012c0 4.418 3.582 8 8 8s8-3.582 8-8v-48c0-4.418-3.582-8-8-8-8.822 0-16-7.178-16-16 0-4.418-3.582-8-8-8h-24c-4.418 0-8 3.582-8 8s3.582 8 8 8z" fill="#a74747" data-original="#000000" style="" class=""/><path d="m448 432c-4.418 0-8 3.582-8 8v8c0 4.411-3.589 8-8 8h-360c-4.418 0-8 3.582-8 8s3.582 8 8 8h360c13.233 0 24-10.766 24-24v-8c0-4.418-3.582-8-8-8z" fill="#a74747" data-original="#000000" style="" class=""/><path d="m72 232h360c4.411 0 8 3.589 8 8v8c0 4.418 3.582 8 8 8s8-3.582 8-8v-8c0-13.234-10.767-24-24-24h-360c-4.418 0-8 3.582-8 8s3.582 8 8 8z" fill="#a74747" data-original="#000000" style="" class=""/></g></g></svg>
